<svg xmlns="http://www.w3.org/2000/svg" viewBox="0 0 354.085 354.085">
  <circle cx="177" cy="177" r="177" fill="#e30a17"/>
  <g fill="#ffffff">
    <path d="M145.935,148.027c0-25.405-14.26-45.305-32.464-45.305c-18.205,0-32.465,19.9-32.465,45.305s14.26,45.305,32.465,45.305C131.675,193.333,145.935,173.432,145.935,148.027z M96.213,168.13c-0.775-1.677-1.46-3.461-2.038-5.339l34.52-38.676c0.918,1.492,1.756,3.11,2.497,4.839L96.213,168.13z M113.471,113.722c2.681,0,5.263,0.843,7.654,2.354l-29.108,32.612c-0.003-0.221-0.011-0.44-0.011-0.661C92.006,129.432,101.836,113.722,113.471,113.722z M113.471,182.333c-3.923,0-7.638-1.791-10.843-4.871l31.919-35.75c0.251,2.054,0.388,4.165,0.388,6.316C134.935,166.623,125.106,182.333,113.471,182.333z"/>
    <path d="M208.15,148.027c0,25.405,14.26,45.305,32.465,45.305c18.204,0,32.464-19.9,32.464-45.305s-14.26-45.305-32.464-45.305C222.41,102.722,208.15,122.623,208.15,148.027z M255.232,123.172c0.956,1.44,1.833,3.011,2.617,4.699l-34.978,39.175c-0.737-1.727-1.375-3.565-1.909-5.486L255.232,123.172z M240.615,182.333c-4.239,0-8.236-2.093-11.607-5.643l32.491-36.39c0.375,2.494,0.581,5.08,0.581,7.728C262.079,166.623,252.25,182.333,240.615,182.333z M240.615,113.722c2.33,0,4.584,0.639,6.705,1.796l-28.154,31.538C219.502,128.889,229.183,113.722,240.615,113.722z"/>
  </g>
</svg> 